{"title":"Outbreak(1995)MPEG-4[DaScubaDude]","uid":15086161,"size":1416564572,"categoryP":"video","categoryS":"movies","magnet":"?xt=urn:btih:5e2f6c698ae6bf486c879c5d56cc2d8d0dd3245d&amp;dn=Outbreak%281995%29MPEG-4%5BDaScubaDude%5D&amp;tr=udp%3A%2F%2Ftracker.leechers-paradise.org%3A6969&amp;tr=udp%3A%2F%2Fzer0day.ch%3A1337&amp;tr=udp%3A%2F%2Fopen.demonii.com%3A1337&amp;tr=udp%3A%2F%2Ftracker.coppersurfer.tk%3A6969&amp;tr=udp%3A%2F%2Fexodus.desync.com%3A6969","seeders":0,"leechers":0,"uploader":"dascuba","files":1,"time":1466885663,"description":"Outbreak (1995)\r\nR | 2h 7min | Action, Drama, Thriller | 10 March 1995 (USA)\r\nExtreme measures are necessary to contain an epidemic of a deadly airborne virus. But how extreme, exactly?\r\nDirector: Wolfgang Petersen\r\nWriters: Laurence Dworet, Robert Roy Pool\r\nStars: Dustin Hoffman, Rene Russo, Morgan Freeman | \r\n\r\nGeneral\r\nComplete name                            : OutbreakOut_Title1.mp4\r\nFormat                                   : MPEG-4\r\nFormat profile                           : Base Media\r\nCodec ID                                 : isom (isom/iso2/avc1/mp41)\r\nFile size                                : 1.32 GiB\r\nDuration                                 : 2h 8mn\r\nOverall bit rate mode                    : Variable\r\nOverall bit rate                         : 1 475 Kbps\r\nMovie name                               : DVD\r\nGenre                                    : Thriller\r\nWriting application                      : Lavf54.6.100\r\n\r\nVideo\r\nID                                       : 1\r\nFormat                                   : AVC\r\nFormat/Info                              : Advanced Video Codec\r\nFormat profile                           :   \r\nFormat settings, CABAC                   : No\r\nFormat settings, ReFrames                : 6 frames\r\nCodec ID                                 : avc1\r\nCodec ID/Info                            : Advanced Video Coding\r\nDuration                                 : 2h 8mn\r\nBit rate                                 : 1 199 Kbps\r\nWidth                                    : 720 pixels\r\nHeight                                   : 404 pixels\r\nDisplay aspect ratio                     : 16:9\r\nFrame rate mode                          : Constant\r\nFrame rate                               : 29.970 (30000/1001) fps\r\nColor space                              : YUV\r\nChroma subsampling                       : 4:2:0\r\nBit depth                                : 8 bits\r\nScan type                                : Progressive\r\nBits/(Pixel*Frame)                       : 0.138\r\nStream size                              : 1.07 GiB (81%)\r\n\r\nAudio\r\nID                                       : 2\r\nFormat                                   : AAC\r\nFormat/Info                              : Advanced Audio Codec\r\nFormat profile                           : LC\r\nCodec ID                                 : 40\r\nDuration                                 : 2h 8mn\r\nBit rate mode                            : Variable\r\nBit rate                                 : 265 Kbps\r\nMaximum bit rate                         : 363 Kbps\r\nChannel(s)                               : 2 channels\r\nChannel(s)_Original                      : 6 channels\r\nChannel positions                        : Front: L C R, Side: L R, LFE\r\nSampling rate                            : 44.1 KHz\r\nFrame rate                               : 43.066 fps (1024 spf)\r\nCompression mode                         : Lossy\r\nStream size                              : 247 MiB (18%)\r\nDefault                                  : Yes\r\nAlternate group                          : 1","torrent":{"xt":"urn:btih:5e2f6c698ae6bf486c879c5d56cc2d8d0dd3245d","amp;dn":"Outbreak%281995%29MPEG-4%5BDaScubaDude%5D","amp;tr":["udp%3A%2F%2Ftracker.leechers-paradise.org%3A6969","udp%3A%2F%2Fzer0day.ch%3A1337","udp%3A%2F%2Fopen.demonii.com%3A1337","udp%3A%2F%2Ftracker.coppersurfer.tk%3A6969","udp%3A%2F%2Fexodus.desync.com%3A6969"],"infoHash":"5e2f6c698ae6bf486c879c5d56cc2d8d0dd3245d","infoHashBuffer":{"type":"Buffer","data":[94,47,108,105,138,230,191,72,108,135,156,93,86,204,45,141,13,211,36,93]},"announce":[],"urlList":[]}}